<?xml version="1.0" encoding="UTF-8" standalone="no"?>
<!-- Uploaded to: SVG Repo, www.svgrepo.com, Generator: SVG Repo Mixer Tools -->

<svg
   width="800px"
   height="800px"
   viewBox="0 0 24 24"
   fill="none"
   version="1.1"
   id="svg1"
   sodipodi:docname="menu-icon.svg"
   inkscape:version="1.3.2 (091e20ef0f, 2023-11-25)"
   xmlns:inkscape="http://www.inkscape.org/namespaces/inkscape"
   xmlns:sodipodi="http://sodipodi.sourceforge.net/DTD/sodipodi-0.dtd"
   xmlns="http://www.w3.org/2000/svg"
   xmlns:svg="http://www.w3.org/2000/svg">
  <defs
     id="defs1" />
  <sodipodi:namedview
     id="namedview1"
     pagecolor="#ffffff"
     bordercolor="#000000"
     borderopacity="0.25"
     inkscape:showpageshadow="2"
     inkscape:pageopacity="0.0"
     inkscape:pagecheckerboard="0"
     inkscape:deskcolor="#d1d1d1"
     inkscape:zoom="0.60910277"
     inkscape:cx="180.5935"
     inkscape:cy="383.35074"
     inkscape:window-width="1920"
     inkscape:window-height="1050"
     inkscape:window-x="0"
     inkscape:window-y="0"
     inkscape:window-maximized="1"
     inkscape:current-layer="svg1" />
  <path
     d="M 3.46447,3.46447 C 2,4.92893 2,7.28595 2,12 2,16.714 2,19.0711 3.46447,20.5355 4.92893,22 7.28595,22 12,22 c 4.714,0 7.0711,0 8.5355,-1.4645 C 22,19.0711 22,16.714 22,12 22,7.28595 22,4.92893 20.5355,3.46447 19.0711,2 16.714,2 12,2 7.28595,2 4.92893,2 3.46447,3.46447 Z"
     id="path1"
     style="fill:#00d1b2;fill-opacity:1" />
  <path
     d="m 16,13 c 0.5523,0 1,-0.4477 1,-1 0,-0.5523 -0.4477,-1 -1,-1 -0.5523,0 -1,0.4477 -1,1 0,0.5523 0.4477,1 1,1 z"
     id="path4"
     style="fill:#ffffff;fill-opacity:1" />
  <path
     d="m 9,12 c 0,0.5523 -0.44772,1 -1,1 -0.55228,0 -1,-0.4477 -1,-1 0,-0.5523 0.44772,-1 1,-1 0.55228,0 1,0.4477 1,1 z"
     id="path3"
     style="fill:#ffffff;fill-opacity:1" />
  <path
     d="m 12,13 c 0.5523,0 1,-0.4477 1,-1 0,-0.5523 -0.4477,-1 -1,-1 -0.5523,0 -1,0.4477 -1,1 0,0.5523 0.4477,1 1,1 z"
     id="path2"
     style="fill:#ffffff;fill-opacity:1" />
</svg>
